<?xml version="1.0" standalone="no"?>
<!DOCTYPE svg PUBLIC "-//W3C//DTD SVG 1.1//EN" "http://www.w3.org/Graphics/SVG/1.1/DTD/svg11.dtd" >
<svg xmlns="http://www.w3.org/2000/svg">
<metadata></metadata>
<defs>
<font id="chuck_noonregular" horiz-adv-x="450" >
<font-face units-per-em="1000" ascent="750" descent="-250" />
<missing-glyph horiz-adv-x="275" />
<glyph unicode=" "  horiz-adv-x="275" />
<glyph unicode="&#x09;" horiz-adv-x="275" />
<glyph unicode="&#xa0;" horiz-adv-x="275" />
<glyph unicode="!" horiz-adv-x="276" d="M59 196v522l-24 71h206l-22 -71v-522h-160v0v0zM59 159h160v-159h-160v159v0v0z" />
<glyph unicode="&#x22;" horiz-adv-x="436" d="M0 789h192v-192l-88 -75h-49l1 75h-56v192v0v0zM219 789h192v-192l-88 -75h-49l1 75h-56v192v0v0z" />
<glyph unicode="#" horiz-adv-x="815" d="M0 583h207v206h87v-206h202v206h87v-206h207v-87h-207v-203h207v-87h-207v-206h-87v206h-202v-206h-87v206h-207v87h207v203h-207v87v0v0zM496 496h-202v-203h202v203v0v0z" />
<glyph unicode="$" horiz-adv-x="478" d="M0 90v197q56 -60 120 -86v188q-111 59 -115 164q-4 68 31 119q19 28 53 44q8 5 15.5 8t15.5 6v59h62v-47q42 3 88 -5v52h63v-70q26 -9 49 -23v-174q-25 29 -49 49v-102q16 -9 30.5 -19.5t27.5 -23.5q62 -65 62 -148q0 -100 -75 -169q-22 -21 -45 -32v-77h-63v54 q-21 -5 -43 -6.5t-45 -0.5v-47h-62v54q-33 5 -63.5 15t-56.5 21zM182 186q6 -1 12 -1h12q21 0 40 4q13 2 24 11v117q-16 15 -40 25q-7 2 -19 7t-29 12v-175zM270 606q-16 7 -37 10q-30 3 -51 -6v-73q5 -4 11.5 -7t14.5 -6q15 -6 30.5 -12t31.5 -13v107z" />
<glyph unicode="%" horiz-adv-x="629" d="M464 0q-58 0 -100 51q-41 50 -41 122q0 70 41 122q42 51 100 51t100 -51q40 -50 40 -122q0 -73 -40 -122q-42 -51 -100 -51zM198 0h-83l288 789h83zM141 443q-60 0 -100 51q-41 52 -41 122q0 71 41 123q41 50 100 50q58 0 99 -50t41 -123q0 -72 -41 -122q-41 -51 -99 -51 zM141 507q16 0 27.5 7t22.5 20q14 18 20.5 38.5t6.5 43.5q0 49 -27 83q-11 12 -22.5 19.5t-27.5 7.5q-17 0 -28.5 -7.5t-21.5 -19.5q-15 -18 -21 -39t-6 -44t6 -43.5t21 -38.5q10 -13 21.5 -20t28.5 -7zM464 63q17 0 28.5 7.5t21.5 19.5q27 36 27 83q0 23 -6.5 43.5 t-20.5 38.5q-10 13 -21.5 20t-28.5 7t-28.5 -7t-21.5 -20q-15 -18 -21 -38.5t-6 -43.5t6 -43.5t21 -39.5q10 -12 21.5 -19.5t28.5 -7.5z" />
<glyph unicode="&#x26;" horiz-adv-x="768" d="M534 1l-39 52q-36 -17 -78.5 -30t-86.5 -19t-88 -3t-83 18q-51 19 -87.5 57.5t-54.5 86.5t-16.5 100.5t27.5 99.5q23 41 55 77t76 68q-30 41 -37.5 81t5 75.5t43.5 63t78 44.5q32 11 68.5 15t74 1t73 -13t64.5 -25v-205q-26 31 -60 60t-76 36q-23 4 -39.5 -3.5 t-22.5 -23.5t0 -40t27 -53l127 -171v57l-25 51h160v-290l124 -167h-209zM253 382q-72 -63 -72 -126q0 -39 24.5 -67t63.5 -33q52 -8 129 28z" />
<glyph unicode="'" horiz-adv-x="262" d="M35 789h192v-192l-88 -75h-49l1 75h-56v192v0v0z" />
<glyph unicode="(" horiz-adv-x="285" d="M158 -87q-37 57 -66.5 113t-49.5 115t-31 122.5t-11 134.5q0 133 42.5 253t115.5 229h87q-173 -239 -173 -482q0 -70 11.5 -132t33.5 -120t54 -115t74 -118h-87z" />
<glyph unicode=")" horiz-adv-x="285" d="M0 -87q42 61 74 118t54 115t33.5 120t11.5 132q0 245 -173 482h88q72 -109 114.5 -229t42.5 -253q0 -71 -11 -134.5t-31 -122.5t-49.5 -115t-66.5 -113h-87z" />
<glyph unicode="*" horiz-adv-x="292" d="M162 522h-57v65l-46 -46l-40 40l46 46h-65v57h65l-46 46l40 40l46 -46v65h57v-65l46 46l40 -40l-46 -46h65v-57h-65l46 -46l-40 -40l-46 46v-65v0v0z" />
<glyph unicode="+" d="M0 457h151v151h123v-151h151v-123h-151v-151h-123v151h-151v123v0v0z" />
<glyph unicode="," horiz-adv-x="252" d="M25 192h192v-192l-88 -75h-49l1 75h-56v192v0v0z" />
<glyph unicode="-" d="M0 457h425v-123h-425v123v0v0z" />
<glyph unicode="." horiz-adv-x="252" d="M25 191h192v-191h-192v191v0v0z" />
<glyph unicode="/" horiz-adv-x="299" d="M76 -87l-76 1l198 946l76 -1l-198 -946v0v0z" />
<glyph unicode="0" horiz-adv-x="668" d="M321 0q-133 0 -227 116q-94 115 -94 279t94 279t227 115q134 0 228 -115q94 -117 94 -279t-94 -279q-94 -116 -228 -116zM321 638q-52 0 -99 -58q-54 -71 -54 -184t54 -182q47 -59 99 -59t99 59q55 70 55 182t-55 184q-47 58 -99 58z" />
<glyph unicode="1" horiz-adv-x="316" d="M58 0l27 83v551h-85l85 155h179v-706l27 -83h-233v0v0z" />
<glyph unicode="2" horiz-adv-x="523" d="M449 434q-27 -29 -116 -94q-126 -92 -135 -189h239l61 31v-182h-498v160q0 137 218 302q13 10 28.5 22t35.5 27q26 22 35 45.5t2.5 42t-27.5 30.5t-55 12q-120 0 -215 -101v201q41 22 93.5 34.5t107.5 13.5t106.5 -11t89.5 -40q87 -64 78 -181q-6 -74 -48 -123z" />
<glyph unicode="3" horiz-adv-x="526" d="M252 4q-31 -5 -64.5 -4t-66 6t-63.5 12.5t-57 16.5v193q88 -75 181 -75q19 0 42.5 6t44 18t34 29.5t13.5 40.5q0 30 -16.5 47.5t-41 26.5t-52.5 11.5t-50 2.5h-19l-68 -19v188l67 -20q21 0 44.5 2.5t43.5 10t33.5 22t13.5 38.5q0 23 -11 37.5t-28.5 23t-38.5 12t-40 3.5 q-81 0 -153 -61v191q34 13 76 19.5t86.5 7t86.5 -6t76 -18.5q54 -19 85 -58.5t38.5 -86.5t-8.5 -95.5t-57 -85.5q66 -29 94 -78t23 -124q-3 -50 -25 -90t-55.5 -70t-77 -48.5t-90.5 -24.5z" />
<glyph unicode="4" horiz-adv-x="665" d="M514 203v-120l31 -83h-256l30 83v120h-319v133l230 453h284v-433h56l70 21v-195l-72 21h-54v0v0zM208 356h111v229l-111 -229v0v0z" />
<glyph unicode="5" horiz-adv-x="565" d="M271 6q-71 -11 -136.5 -4.5t-134.5 19.5v220q26 -24 58.5 -38.5t68 -20.5t71.5 -4.5t69 10.5q30 8 48.5 29.5t24 47t-4.5 51.5t-37 43q-26 16 -62 24.5t-74.5 10t-76 -3.5t-67.5 -15v414h462v-192l-62 39h-211v-98q77 5 141 -10.5t124 -64.5q74 -61 67 -196 q-8 -105 -81 -174q-75 -71 -187 -87z" />
<glyph unicode="6" horiz-adv-x="618" d="M145 719q88 70 194 70q45 0 83.5 -9.5t76.5 -25.5v-170q-11 8 -22.5 14.5t-25.5 12.5q-41 19 -81.5 23t-75.5 -8.5t-63 -43t-44 -79.5q36 28 83 37.5t95 3t91.5 -28t72.5 -54.5q64 -71 64 -187q0 -46 -14 -87.5t-39.5 -75.5t-61.5 -59t-79 -38q-45 -14 -94 -14t-94 14 t-83.5 42t-63.5 70q-64 108 -64 255q0 47 9 94t27 91.5t45 83.5t64 69zM292 149q27 -4 49.5 4.5t39.5 25t27.5 39.5t13.5 47q3 25 -3 50t-19 46t-33 35.5t-47 19.5q-27 3 -49.5 -5.5t-39.5 -25.5t-28 -39.5t-14 -47.5t3 -50t19 -46t33.5 -35.5t47.5 -17.5z" />
<glyph unicode="7" horiz-adv-x="526" d="M501 789l-219 -789h-207l185 635h-188l-72 -31v185h501v0v0z" />
<glyph unicode="8" horiz-adv-x="606" d="M291 0q-120 0 -206 71q-85 73 -85 173q0 112 100 186q-64 62 -64 144q0 89 72 152t173 63t173 -63q71 -62 71 -152q0 -78 -56 -137q112 -73 112 -193q0 -100 -85 -173q-86 -71 -205 -71zM288 666q-39 0 -67 -26q-27 -26 -27 -62t27 -61q26 -25 67 -25q40 0 66 25 q27 25 27 61t-27 62q-28 26 -66 26zM293 363q-53 0 -88 -34q-37 -34 -37 -82q0 -49 37 -82q35 -34 88 -34q51 0 88 34q36 33 36 82q0 47 -36 82q-37 34 -88 34z" />
<glyph unicode="9" horiz-adv-x="619" d="M254 0q-55 0 -101.5 14.5t-92.5 35.5v188q25 -35 82 -60q41 -19 81 -23t75.5 8.5t63.5 42.5t44 80q-36 -29 -83 -38.5t-94.5 -2.5t-91 28.5t-73.5 54.5q-64 71 -64 187q0 121 89 202q46 41 108 59t124.5 12t118.5 -37t89 -88q29 -48 45 -103.5t19 -113.5t-6.5 -115.5 t-30.5 -109.5q-20 -48 -50.5 -89t-69.5 -70t-85 -45.5t-97 -16.5zM301 640q-26 4 -48 -4t-39.5 -24.5t-28 -39.5t-13.5 -48q-3 -26 3 -51.5t19 -46t33 -35t46 -18.5q25 -3 48 5t40 24.5t28.5 39.5t14.5 49t-3.5 51.5t-20 46t-33.5 34.5t-46 17z" />
<glyph unicode=":" horiz-adv-x="232" d="M0 191h192v-191h-192v191v0v0zM0 525h192v-191h-192v191v0v0z" />
<glyph unicode=";" horiz-adv-x="232" d="M0 192h192v-192l-88 -75h-49l1 75h-56v192v0v0zM0 526h192v-192h-192v192v0v0z" />
<glyph unicode="&#x3c;" horiz-adv-x="282" d="M257 46v0h-84l-173 300l170 295h84l-170 -295l173 -300v0z" />
<glyph unicode="=" d="M0 554h425v-123h-425v123v0v0zM0 360h425v-123h-425v123v0v0z" />
<glyph unicode="&#x3e;" horiz-adv-x="282" d="M0 46l173 300l-170 295h84l170 -295l-173 -300h-84v0v0z" />
<glyph unicode="?" horiz-adv-x="455" d="M0 736q46 17 97 29.5t104 11.5q42 0 83.5 -14t79.5 -51q25 -24 41 -55t21.5 -65t-1 -68t-26.5 -64q-17 -25 -49 -51q-34 -27 -53.5 -50.5t-29 -47t-12 -47t-2.5 -49.5h-160q0 41 4 77t15.5 67t33 57.5t56.5 49.5q17 11 33 23t27 28q18 24 20.5 46.5t-7.5 40t-31 27.5 t-51 10q-106 0 -193 -100v195zM93 161h161v-161h-161v161z" />
<glyph unicode="@" horiz-adv-x="788" d="M417 251q-39 -31 -79 -31q-65 0 -99 49q-31 41 -31 110q0 80 40 139q43 66 112 66q50 0 76 -32l3 18h91l-28 -206q-6 -40 2 -64.5t24.5 -33t39 -0.5t45.5 33q51 58 47 157q-2 55 -24 99.5t-58.5 75t-84 47t-100.5 16.5q-82 0 -149 -37q-72 -39 -108 -111 q-35 -70 -32 -158q5 -139 96 -218q86 -74 211 -74q74 0 146 27v-102q-85 -24 -157 -21q-161 8 -271 106q-122 107 -128 280q-3 58 8.5 109.5t36.5 98.5q51 95 148 147q91 48 199 48q145 0 249 -84q116 -92 120 -247q4 -92 -40 -170q-38 -67 -103 -105q-27 -15 -59.5 -22.5 t-62 -1.5t-52 28t-28.5 64zM372 511q-42 -2 -60 -76q-9 -39 -9 -74q0 -73 44 -73q29 0 50 49q19 44 19 97q0 78 -44 77z" />
<glyph unicode="A" horiz-adv-x="687" d="M417 0l10 81l-29 157l-69 -25l-64 23l-27 -154l7 -82h-245l49 84l136 623l-10 82h314l-11 -82l137 -623l47 -84h-245v0v0zM372 382l-40 222l-41 -225l38 -13l43 16v0v0z" />
<glyph unicode="B" horiz-adv-x="610" d="M338 0h-338l31 82v624l-29 83h349q36 0 69.5 -9t60.5 -27.5t45 -47t23 -67.5q3 -25 3 -51.5t-5.5 -51.5t-18 -47.5t-34.5 -38.5q94 -53 90 -204q-2 -55 -20 -100t-49.5 -77.5t-76 -50t-100.5 -17.5zM285 650h-68v-148h65q92 0 92 73q0 77 -89 75zM286 343h-69v-195h84 q101 0 101 100q0 95 -116 95z" />
<glyph unicode="C" horiz-adv-x="577" d="M552 34q-62 -29 -136.5 -33.5t-143.5 13.5q-87 24 -148 84q-57 52 -90 135q-34 80 -34 161q0 178 125 292q83 77 195 98q21 4 50.5 5t61 -1t61.5 -8t53 -16v-192q-23 20 -51 35t-58.5 22.5t-61.5 5.5t-60 -16q-125 -61 -125 -225q0 -95 48 -161q57 -72 150 -72 q96 0 164 62v-189z" />
<glyph unicode="D" horiz-adv-x="684" d="M292 620h-73v-453h75q90 0 137 75q39 61 39 157q0 49 -9.5 89.5t-30.5 69.5t-55 45.5t-83 16.5zM291 0h-289l29 82v624l-31 83h272q88 0 160 -24t122 -72t77.5 -119.5t27.5 -167.5q0 -92 -23 -167t-69.5 -128t-115.5 -82t-160 -29z" />
<glyph unicode="E" horiz-adv-x="517" d="M492 0h-490l27 82v624l-29 83h481v-182l-83 28h-181v-142h135l66 22v-195l-67 19h-134v-185h210l64 31l1 -185v0v0z" />
<glyph unicode="F" horiz-adv-x="505" d="M480 607l-82 28h-181v-142h134l66 22v-195l-68 19h-132v-257l28 -82h-243l27 82v624l-29 83h480v-182v0v0z" />
<glyph unicode="G" horiz-adv-x="650" d="M625 405v-322q-19 -14 -46 -29t-60.5 -28t-73 -20.5t-84.5 -5.5q-143 6 -237 96q-61 60 -92 138.5t-31.5 160.5t30.5 160t94 137q46 41 99.5 63.5t111 30t116 1t115.5 -22.5v-189q-23 21 -54 36.5t-64.5 23t-67.5 5t-64 -16.5q-126 -66 -126 -228q0 -99 55 -168 q38 -47 92 -60t110 -2v158l-27 82h204z" />
<glyph unicode="H" horiz-adv-x="657" d="M387 789v0h244l-28 -82v-623l29 -84h-246l29 84v165l-99 -36l-99 36v-165l30 -84h-247l31 84v623l-29 82h245l-30 -82v-305l99 -36l99 36v305l-28 82v0z" />
<glyph unicode="I" horiz-adv-x="269" d="M2 0l26 82v624l-28 83h242l-26 -83v-624l28 -82h-242v0v0z" />
<glyph unicode="J" horiz-adv-x="485" d="M431 707v-476q0 -46 -14.5 -84t-40 -66.5t-61 -47.5t-78.5 -28q-65 -12 -124 1t-113 36v215q75 -95 164 -93q42 0 63 23.5t21 55.5v464l-28 82h240z" />
<glyph unicode="K" horiz-adv-x="654" d="M361 0l18 44l-118 315l-50 -75v-201l28 -83h-238l28 83v624l-29 82h238l-27 -84v-156l126 194l-9 46h259l-70 -53l-137 -203l193 -478l56 -55h-268v0v0z" />
<glyph unicode="L" horiz-adv-x="533" d="M508 0h-506l29 82v624l-31 83h241l-24 -83v-552h227l64 31v-185v0v0z" />
<glyph unicode="M" horiz-adv-x="823" d="M767 706v-624l30 -82h-247l30 82v279l-177 -361h-8l-176 362v-280l29 -82h-246l29 82v624l-31 83h220l179 -372l182 372h217l-31 -83v0v0z" />
<glyph unicode="N" horiz-adv-x="665" d="M429 0l-212 405l2 -323l28 -82h-245l29 82v624l-31 83h219l204 -387v304l-30 83h247l-30 -83v-624l28 -82h-209v0v0z" />
<glyph unicode="O" horiz-adv-x="689" d="M332 0q-137 0 -235 116q-97 115 -97 279q0 163 97 278q97 116 235 116q140 0 235 -116q97 -115 97 -278q0 -164 -97 -279q-96 -116 -235 -116zM332 637q-54 0 -102 -58q-57 -71 -57 -183q0 -113 57 -183q48 -58 102 -58t102 58q56 69 56 183t-56 183q-48 58 -102 58z" />
<glyph unicode="P" horiz-adv-x="597" d="M279 244h-62v-162l29 -82h-244l29 82v623l-31 84h292q277 0 279 -273q1 -63 -21.5 -113.5t-62.5 -86t-93.5 -54t-114.5 -18.5zM255 629h-38v-230h41q142 0 142 125q0 65 -42 88q-31 17 -103 17z" />
<glyph unicode="Q" horiz-adv-x="690" d="M420 250v-53q4 4 7 7.5t7 8.5q29 36 43.5 84t14.5 98.5t-14.5 98.5t-43.5 84q-47 57 -102 57.5t-101 -57.5q-30 -36 -44.5 -84t-14.5 -98.5t14.5 -98.5t44.5 -84q8 -12 18 -20v57h171zM420 13v-21l23 -80h-221l27 78v21q-86 26 -152 104q-97 118 -97 279q0 162 97 279 q98 116 235 116q139 0 235 -116q98 -116 98 -279q0 -161 -98 -279q-65 -77 -147 -102z" />
<glyph unicode="R" horiz-adv-x="654" d="M217 263v-181l29 -82h-244l29 82v623l-31 84h293q277 0 279 -273q1 -76 -35 -135.5t-107 -86.5l119 -213l80 -81h-300l29 82l-98 182q-11 -1 -21.5 -1h-21.5zM255 629h-38v-211h41q73 0 104 22q19 13 29 38.5t10 53t-11 51t-35 33.5q-27 13 -100 13z" />
<glyph unicode="S" horiz-adv-x="553" d="M0 45v245q106 -123 237 -123q110 0 110 76q0 55 -106 100q-62 26 -101.5 47t-59.5 36q-76 61 -76 160q0 105 76 161q36 27 84 35.5t98.5 6t99 -12.5t85.5 -22v-228q-99 114 -206 114q-55 0 -55 -42q0 -26 30 -41q18 -7 45.5 -18t65.5 -26q201 -87 201 -246 q0 -107 -80 -187q-52 -50 -113 -68q-34 -10 -78.5 -11.5t-90.5 3.5t-90 16t-76 25z" />
<glyph unicode="T" horiz-adv-x="640" d="M550 635h-149v-551l25 -84h-242l30 82v553h-148l-66 -40v194h615l-1 -186l-64 32v0v0z" />
<glyph unicode="U" horiz-adv-x="624" d="M570 707v-475q0 -67 -29.5 -115t-77.5 -77q-33 -20 -74 -29.5t-84.5 -10.5t-85.5 8t-75 27q-51 29 -83 78.5t-32 118.5v475l-29 82h240l-28 -82v-462q0 -27 13 -44.5t32.5 -26.5t42 -9t42 9t32.5 26.5t13 44.5v462l-28 82h240z" />
<glyph unicode="V" horiz-adv-x="686" d="M626 753l-155 -700l13 -53h-306l14 53l-154 701l-38 35h245l-12 -53l99 -482l98 482l-13 53h244l-35 -36v0v0z" />
<glyph unicode="W" horiz-adv-x="1005" d="M945 754l-131 -701l12 -53h-292l12 53l-61 309l-60 -309l12 -53h-281l11 53l-132 700l-35 36h246l-10 -54l62 -376l89 377l-13 53h232l-11 -50l80 -380l60 376l-10 54h255l-35 -35v0v0z" />
<glyph unicode="X" horiz-adv-x="653" d="M381 0l14 53l-83 232l-80 -231l13 -54h-245l49 51l140 371l-118 332l-43 35h232l-15 -33l71 -196l68 195l-13 34h223l-44 -35l-119 -330l144 -365l53 -59h-247v0v0z" />
<glyph unicode="Y" horiz-adv-x="691" d="M608 754l-169 -421v-251l30 -82h-261l31 82v247l-181 424l-58 36h260l-16 -35l94 -247l93 247l-16 35h251l-58 -35v0v0z" />
<glyph unicode="Z" horiz-adv-x="521" d="M496 0h-496v148l249 487h-145l-104 -31v185h458v-149l-241 -486h175l104 31v-185v0v0z" />
<glyph unicode="[" horiz-adv-x="336" d="M296 -14v-73h-296v967h296v-73h-224v-821h224v0v0z" />
<glyph unicode="\" horiz-adv-x="299" d="M198 -87v0l-198 946l76 1l198 -946l-76 -1v0z" />
<glyph unicode="]" horiz-adv-x="336" d="M0 -14v0h224v821h-224v73h296v-967h-296v73v0z" />
<glyph unicode="^" horiz-adv-x="387" d="M362 694l-187 101l-175 -100v83l175 101l187 -101v-84v0v0z" />
<glyph unicode="_" horiz-adv-x="768" d="M743 73v-73h-743v73h743v0v0z" />
<glyph unicode="`" horiz-adv-x="249" d="M126 610l-126 179h148l76 -179h-98v0v0z" />
<glyph unicode="a" horiz-adv-x="608" d="M367 0l9 71l-25 139l-62 -22l-55 20l-25 -135l7 -73h-216l43 74l120 549l-9 72h276l-9 -72l120 -549l42 -74h-216v0v0zM328 336l-36 196l-36 -198l33 -12l39 14v0v0z" />
<glyph unicode="b" horiz-adv-x="540" d="M297 0h-297l27 72v549l-26 74h308q32 0 61.5 -8t53 -24t39.5 -41.5t20 -59.5q3 -22 3 -45t-5 -45.5t-16 -42t-30 -34.5q83 -46 79 -179q-2 -48 -17.5 -88t-43.5 -68.5t-67.5 -44t-88.5 -15.5zM251 572h-60v-130h57q82 0 82 64q0 68 -79 66zM252 302h-61v-171h74 q89 0 89 87q0 84 -102 84z" />
<glyph unicode="c" horiz-adv-x="511" d="M486 30q-27 -12 -57.5 -19.5t-62.5 -9.5t-64 1t-62 11q-74 19 -131 73q-48 45 -79 119q-30 72 -30 142q0 156 110 258q75 67 171 85q19 3 45 4.5t54 -0.5t54.5 -7t46.5 -14v-170q-20 18 -45 31.5t-52 20t-54.5 4.5t-52.5 -14q-110 -54 -110 -198q0 -84 43 -142 q49 -63 132 -63q82 0 144 54v-166z" />
<glyph unicode="d" horiz-adv-x="605" d="M257 546h-64v-399h65q80 0 122 66q33 54 33 138q0 43 -8 79t-26.5 61.5t-48.5 40t-73 14.5zM256 0h-255l26 72v549l-27 74h239q78 0 141 -21t107.5 -63.5t68.5 -105.5t24 -147q0 -81 -20.5 -147.5t-61 -113t-101 -72t-141.5 -25.5z" />
<glyph unicode="e" horiz-adv-x="458" d="M433 0h-432l25 72v549l-26 74h424v-160l-74 24h-159v-125h119l58 19v-171l-59 16h-118v-162h185l57 27v-163v0v0z" />
<glyph unicode="f" horiz-adv-x="448" d="M423 535l-72 24h-160v-125h118l58 19v-171l-59 16h-117v-226l25 -72h-215l25 72v549l-26 74h423v-160v0v0z" />
<glyph unicode="g" horiz-adv-x="575" d="M550 357v-283q-17 -12 -40 -26t-52.5 -25t-64.5 -18t-75 -5q-126 6 -209 85q-54 52 -81 121.5t-27.5 142t26.5 141t83 120.5q41 36 88 55.5t97.5 26t102.5 1.5t102 -20v-167q-21 19 -48 32.5t-56.5 20.5t-59.5 5t-56 -15q-112 -58 -112 -201q0 -87 49 -148 q34 -42 81 -53.5t97 -0.5v139l-24 72h179z" />
<glyph unicode="h" horiz-adv-x="582" d="M341 695v0h215l-25 -72v-549l26 -74h-217l26 74v145l-88 -31l-87 31v-145l26 -74h-217l27 74v549l-26 72h216l-26 -72v-269l87 -32l88 32v269l-25 72v0z" />
<glyph unicode="i" horiz-adv-x="240" d="M1 0l24 72v549l-25 74h213l-23 -74v-549l25 -72h-214v0v0z" />
<glyph unicode="j" horiz-adv-x="430" d="M380 623v-420q0 -40 -12.5 -73t-35.5 -58.5t-54.5 -42.5t-68.5 -24q-57 -11 -109.5 0.5t-99.5 31.5v189q66 -83 144 -81q37 0 55.5 20.5t18.5 48.5v409l-24 72h211z" />
<glyph unicode="k" horiz-adv-x="579" d="M318 0l15 39l-103 277l-44 -66v-177l25 -73h-210l24 73v549l-25 73h209l-23 -74v-137l111 170l-8 41h228l-62 -47l-120 -178l169 -421l50 -49h-236v0v0z" />
<glyph unicode="l" horiz-adv-x="472" d="M447 0h-446l26 72v549l-27 74h212l-21 -74v-485h200l56 27v-163v0v0z" />
<glyph unicode="m" horiz-adv-x="728" d="M676 621v-549l26 -72h-217l25 72v246l-155 -318h-7l-155 319v-247l25 -72h-217l26 72v549l-27 74h194l158 -328l160 328h191l-27 -74v0v0z" />
<glyph unicode="n" horiz-adv-x="588" d="M378 0l-187 356l2 -284l24 -72h-216l26 72v549l-27 74h193l179 -341v267l-26 74h217l-26 -74v-549l25 -72h-184v0v0z" />
<glyph unicode="o" horiz-adv-x="610" d="M292 0q-121 0 -206 102q-86 103 -86 246q0 142 86 245q85 102 206 102t207 -102q86 -103 86 -245q0 -143 -86 -246q-86 -102 -207 -102zM292 561q-49 0 -89 -51q-51 -62 -51 -161q0 -100 51 -161q41 -52 89 -52q47 0 90 52q50 62 50 161t-50 161q-42 51 -90 51z" />
<glyph unicode="p" horiz-adv-x="528" d="M245 215h-54v-142l26 -73h-216l26 73v548l-27 74h257q243 0 245 -240q1 -56 -19 -100.5t-55 -75.5t-82 -47.5t-101 -16.5zM225 554h-34v-203h36q125 0 125 110q0 59 -37 78q-26 15 -90 15z" />
<glyph unicode="q" horiz-adv-x="610" d="M370 220v-46q3 3 6 6.5t6 7.5q25 31 38 73.5t13 87t-13 86.5t-38 74q-41 50 -89.5 50.5t-89.5 -50.5q-26 -32 -39 -74t-13 -86.5t13 -87t39 -73.5q8 -12 16 -18v50h151zM370 11v-18l20 -70h-195l24 69v18q-77 23 -133 92q-86 103 -86 245q0 144 86 245q85 102 206 102 t207 -102q86 -101 86 -245q0 -142 -86 -245q-56 -68 -129 -91z" />
<glyph unicode="r" horiz-adv-x="578" d="M191 231v-158l26 -73h-216l26 73v548l-27 74h258q244 0 246 -240q0 -67 -31.5 -119.5t-94.5 -76.5l105 -188l70 -71h-263l25 73l-86 159q-10 0 -19.5 -0.5t-18.5 -0.5zM225 554h-34v-186h36q63 0 92 20q16 11 25 33.5t9 46.5t-10 44.5t-31 29.5q-24 12 -87 12z" />
<glyph unicode="s" horiz-adv-x="490" d="M0 40v216q95 -108 209 -108q96 0 96 66q0 47 -93 88q-108 47 -142 73q-66 52 -66 141q0 92 66 142q32 23 74 31t86.5 5.5t87 -11.5t75.5 -19v-201q-85 100 -181 100q-49 0 -49 -36q0 -24 27 -36q17 -7 41 -16.5t57 -22.5q177 -77 177 -216q0 -95 -71 -166 q-46 -44 -99 -59q-30 -9 -69 -10t-80 3.5t-79.5 14t-66.5 21.5z" />
<glyph unicode="t" horiz-adv-x="566" d="M484 559h-131v-485l22 -74h-213l26 73v486h-130l-58 -35v171h541v-164l-57 28v0v0z" />
<glyph unicode="u" horiz-adv-x="552" d="M502 623v-418q0 -59 -26 -101.5t-68 -68.5q-29 -17 -65.5 -25.5t-74.5 -9t-75 7.5t-66 24q-45 24 -73 67.5t-28 105.5v418l-26 72h211l-24 -72v-407q0 -35 24 -52.5t52.5 -17.5t52.5 17.5t24 52.5v407l-24 72h211z" />
<glyph unicode="v" horiz-adv-x="607" d="M551 663l-137 -616l12 -47h-270l13 47l-136 617l-33 31h216l-11 -47l87 -424l86 424l-11 47h215l-31 -32v0v0z" />
<glyph unicode="w" horiz-adv-x="887" d="M832 663l-116 -617l11 -46h-109h-148l10 46l-53 273l-53 -273l11 -46h-248l10 46l-116 617l-31 31h217l-9 -47l54 -331l79 332l-12 46h204l-9 -44l70 -334l53 331l-9 47h224l-30 -31v0v0z" />
<glyph unicode="x" horiz-adv-x="578" d="M336 0l11 47l-72 204l-71 -203l12 -48h-216l43 46l124 326l-105 292l-37 31h204l-13 -30l62 -172l60 172l-11 30h196l-39 -31l-104 -291l126 -321l47 -52h-217v0v0z" />
<glyph unicode="y" horiz-adv-x="611" d="M535 664l-149 -371v-220l27 -73h-230l28 73v216l-160 374l-51 32h229l-15 -31l84 -217l82 217l-15 31h221l-51 -31v0v0z" />
<glyph unicode="z" horiz-adv-x="462" d="M437 0h-437v131l220 428h-128l-92 -27v163h403v-131l-212 -428h154l91 27l1 -163v0v0z" />
<glyph unicode="{" horiz-adv-x="401" d="M200 878h161v-72h-161q-26 0 -44.5 -18.5t-18.5 -44.5v-695q0 -26 18.5 -44.5t44.5 -18.5h161v-72h-161q-28 0 -52.5 10.5t-43 29t-29 43t-10.5 52.5v282l-65 68l65 67v278q0 28 10.5 52.5t29 43t43 29t52.5 10.5z" />
<glyph unicode="|" horiz-adv-x="112" d="M72 -64h-72v919h72v-919v0v0z" />
<glyph unicode="}" horiz-adv-x="401" d="M161 878q28 0 52.5 -10.5t42.5 -29t28.5 -43t10.5 -52.5v-278l66 -67l-66 -68v-282q0 -28 -10.5 -52.5t-28.5 -43t-42.5 -29t-52.5 -10.5h-161v72h161q26 0 44.5 18.5t18.5 44.5v695q0 26 -18.5 44.5t-44.5 18.5h-161v72h161v0z" />
<glyph unicode="~" horiz-adv-x="312" d="M176 352q-11 0 -25.5 2t-34.5 6q-17 3 -32 5.5t-28.5 1t-27 -7t-28.5 -17.5q30 102 125 102q22 0 42.5 -5t40.5 -8t39.5 -0.5t39.5 18.5q0 -49 -32 -73t-79 -24z" />
<glyph unicode="&#xa1;" horiz-adv-x="276" d="M219 593v-522l22 -71h-206l24 71v522h160zM59 789h160v-159h-160v159z" />
<glyph unicode="&#xa2;" horiz-adv-x="454" d="M429 114q-50 -23 -110 -26v-88h-102v97q-2 1 -3 1t-3 1q-65 18 -115 65q-43 40 -70 105q-26 64 -26 125q0 139 97 227q26 25 56 41.5t64 27.5v99h102v-88q28 -1 56 -5.5t49 -13.5v-150q-18 16 -39.5 27.5t-45.5 17.5t-48 4.5t-46 -12.5q-98 -48 -98 -175q0 -73 38 -125 q44 -56 116 -56q74 0 128 48v-147z" />
<glyph unicode="&#xa3;" horiz-adv-x="566" d="M541 0h-465v143q59 83 54 190h-65l-65 -20v192l63 -21h52q-6 64 -12 98q-3 15 -3 28q0 74 63 125q38 31 83 43.5t91.5 11t93.5 -13t89 -26.5v-208q-95 99 -180 99q-32 0 -47 -13q-13 -14 -14 -49q0 -28 12 -95h109l63 21v-192l-65 20h-97q2 -45 -4.5 -90t-22.5 -92h176 l91 31v-182z" />
<glyph unicode="&#xa4;" horiz-adv-x="638" d="M613 34q-61 -29 -136 -33.5t-143 13.5q-86 23 -149 84q-56 53 -89 135q-23 53 -30 103h-4l-62 -19v184l61 -20h9q24 121 117 206q84 76 194 97q22 4 51.5 5t61 -1t61.5 -7.5t53 -15.5v-193q-23 20 -51 35t-59 22.5t-62 5.5t-60 -16q-89 -44 -114 -138h211l61 20l-1 -184 l-62 19h-215q10 -57 44 -103q57 -72 150 -72q95 0 163 62v-189z" />
<glyph unicode="&#xa5;" horiz-adv-x="673" d="M583 731l-155 -398v-26h138v-117h-138v-108l30 -82h-254l30 82v108h-138v117h138v22l-168 401l-66 59h253l-15 -33l92 -250l90 250l-15 33h243l-36 -24l-29 -34v0v0z" />
<glyph unicode="&#xa9;" horiz-adv-x="815" d="M395 0q-83 0 -155 30.5t-125 84t-84 125.5t-31 155q0 82 31 154t84.5 125.5t125.5 84t154 30.5t154 -30.5t125.5 -84t84.5 -125.5t31 -154q0 -83 -31 -155t-84 -125.5t-125.5 -84t-154.5 -30.5zM505 177q-37 -17 -82 -20t-87 8q-51 13 -89 50q-35 33 -54 82 q-21 49 -21 97q0 107 76 177q51 46 117 58q13 3 31 3.5t37 -0.5t37 -4.5t32 -9.5v-117q-28 25 -66.5 35.5t-73.5 -6.5q-75 -38 -75 -136q0 -59 29 -97q34 -43 90 -43q58 0 99 37v-114zM395 707q-130 0 -222 -91q-91 -92 -91 -221q0 -130 91 -221q94 -92 222 -92t220 92 t92 221q0 127 -92 221q-91 91 -220 91z" />
<glyph unicode="&#xae;" horiz-adv-x="292" d="M134 522q-45 0 -77 23.5t-46.5 58.5t-8.5 74t37 71q19 20 44 30t50.5 10t50 -10t44.5 -30q31 -32 36.5 -71t-8.5 -74t-46 -58.5t-76 -23.5zM124 634v-30l5 -14h-41l5 14v103l-5 14h49q46 0 46 -45q0 -28 -24 -37l20 -36l13 -13h-49l5 14l-17 30h-7zM131 694h-7v-35h7 q11 0 17 4q7 5 7 15.5t-8 13.5q-3 2 -16 2zM134 756q-34 0 -58.5 -18t-35.5 -44.5t-6.5 -56t28.5 -53.5t53.5 -28.5t56 6.5t44.5 35.5t18 58.5q0 42 -29 71t-71 29z" />
<glyph unicode="&#xbf;" horiz-adv-x="455" d="M453 236q-87 -100 -193 -100q-30 0 -51 10t-31 27.5t-7.5 40t20.5 46.5q11 16 27 28t33 23q35 23 56.5 49.5t33 57.5t15.5 67t4 77h-160q0 -26 -2.5 -49.5t-12 -47t-29 -47t-53.5 -50.5q-15 -12 -27.5 -24.5t-21.5 -26.5q-20 -30 -26.5 -64t-1 -68t21.5 -65t41 -55 q38 -37 79.5 -51t83.5 -14q53 -1 104 11.5t97 29.5v195zM360 616h-161v161h161v-161z" />
<glyph unicode="&#x2122;" horiz-adv-x="512" d="M186 737h-50v-186l8 -29h-82l10 28v187h-50l-22 -14v66h208l-1 -63l-21 11v0v0zM476 760v-210l10 -28h-83l10 28v94l-59 -122h-3l-60 123v-95l10 -28h-83l10 28v210l-10 29h74l60 -126l62 126h73l-11 -29v0v0z" />
<glyph unicode="&#x25fc;" horiz-adv-x="695" d="M0 695h695v-695h-695v695z" />
</font>
</defs>
</svg>
